<svg version="1.2" baseProfile="tiny-ps" xmlns="http://www.w3.org/2000/svg" viewBox="0 0 1280 720" width="1280" height="720">
	<title>envlog-logo-svg</title>
	<style>
		tspan { white-space:pre }
		.shp0 { fill: #ffffff } 
	</style>
	<path id="envlog" fill-rule="evenodd" class="shp0" d="M80.93 343.2C82.24 384.89 105.5 405.51 144.99 405.51C173.07 405.51 196.77 395.42 210.37 385.33L227.04 422.62C207.3 437.98 181.41 449.39 142.8 449.39C63.81 449.39 21.25 402.44 21.25 329.16C21.25 262.03 62.06 208.49 132.7 208.49C202.03 208.49 234.06 263.34 234.06 324.33L234.06 325.21C234.06 330.92 233.62 336.62 233.62 342.32L233.62 343.2L80.93 343.2ZM178.78 310.73L178.78 308.54C178.78 271.68 162.54 253.25 133.58 253.25C113.84 253.25 84.44 265.1 81.37 310.73L178.78 310.73ZM366.14 253.25C343.76 253.25 320.06 271.24 310.41 289.67L310.41 445L249.42 445L249.42 217.27L300.32 217.27L305.15 247.55C323.14 226.49 351.66 208.06 385.88 208.49C441.17 209.37 464.86 250.18 464.86 306.34L464.86 445L403.87 445L403.87 312.05C403.87 280.46 402.12 253.25 366.14 253.25ZM622.83 217.27L685.57 217.27L601.76 445L545.16 445L449.51 217.27L513.13 217.27L574.12 381.38L622.83 217.27ZM750.07 355.93C750.07 390.59 753.15 402.44 785.62 402.44C796.59 402.44 798.34 401.56 798.34 401.56L800.97 445C800.97 445 789.13 447.63 769.38 447.63C700.49 447.63 689.52 405.95 689.52 347.59L689.52 128.2L750.07 124.25L750.07 355.93ZM1018.61 329.6C1018.61 398.93 980.44 449.39 906.28 449.39C832.13 449.39 793.95 398.93 793.95 329.6C793.95 258.96 832.13 208.49 906.28 208.49C980.44 208.49 1018.61 258.96 1018.61 329.6ZM960.69 329.6C960.69 278.7 938.31 253.25 906.28 253.25C874.25 253.25 852.31 278.7 852.31 329.6C852.31 379.18 873.81 405.07 906.28 405.07C938.75 405.07 960.69 379.18 960.69 329.6ZM1086.62 549.43L1082.23 502.48L1106.37 502.48C1171.31 502.48 1195.88 502.04 1195.88 432.71L1195.88 414.29C1184.47 430.52 1167.8 445 1130.94 445C1072.58 445 1024.75 402 1024.75 327.41C1024.75 248.42 1077.41 208.49 1127.43 208.49L1127.87 208.49C1162.97 208.49 1183.59 222.1 1195.88 239.65L1195.88 217.27L1256.43 217.27L1256.43 430.96C1256.43 513.45 1224.84 549.43 1116.02 549.43L1086.62 549.43ZM1142.35 400.68C1174.82 400.68 1198.51 373.04 1198.51 327.84C1198.51 281.33 1174.38 253.69 1142.35 253.25L1141.03 253.25C1102.86 253.25 1083.11 282.21 1083.11 327.84C1083.11 370.85 1107.24 400.68 1140.59 400.68L1142.35 400.68Z" />
</svg>