<svg version="1.2" baseProfile="tiny-ps" xmlns="http://www.w3.org/2000/svg" viewBox="0 0 1280 720" width="1280" height="720">
	<title>New Project</title>
	<style>
		tspan { white-space:pre }
	</style>
	<path id="envlog" fill="#30a853" aria-label="envlog"  d="M81.37 310.73C84.44 265.1 113.84 253.25 133.58 253.25C162.54 253.25 178.78 271.68 178.78 308.54L178.78 310.73ZM233.62 343.2L233.62 342.32C233.62 336.62 234.06 330.92 234.06 325.21L234.06 324.33C234.06 263.34 202.03 208.49 132.7 208.49C62.06 208.49 21.25 262.03 21.25 329.16C21.25 402.44 63.81 449.39 142.8 449.39C181.41 449.39 207.3 437.98 227.04 422.62L210.37 385.33C196.77 395.42 173.07 405.51 144.99 405.51C105.5 405.51 82.24 384.89 80.93 343.2ZM403.87 312.05L403.87 445L464.86 445L464.86 306.34C464.86 250.18 441.17 209.37 385.88 208.49C351.66 208.06 323.14 226.49 305.15 247.55L300.32 217.27L249.42 217.27L249.42 445L310.41 445L310.41 289.67C320.06 271.24 343.76 253.25 366.14 253.25C402.12 253.25 403.87 280.46 403.87 312.05ZM574.12 381.38L513.13 217.27L449.51 217.27L545.16 445L601.76 445L685.57 217.27L622.83 217.27ZM750.07 124.25L689.52 128.2L689.52 347.59C689.52 405.95 700.49 447.63 769.38 447.63C789.13 447.63 800.97 445 800.97 445L798.34 401.56C798.34 401.56 796.59 402.44 785.62 402.44C753.15 402.44 750.07 390.59 750.07 355.93ZM906.28 208.49C832.13 208.49 793.95 258.96 793.95 329.6C793.95 398.93 832.13 449.39 906.28 449.39C980.44 449.39 1018.61 398.93 1018.61 329.6C1018.61 258.96 980.44 208.49 906.28 208.49ZM906.28 405.07C873.81 405.07 852.31 379.18 852.31 329.6C852.31 278.7 874.25 253.25 906.28 253.25C938.31 253.25 960.69 278.7 960.69 329.6C960.69 379.18 938.75 405.07 906.28 405.07ZM1140.59 400.68C1107.24 400.68 1083.11 370.85 1083.11 327.84C1083.11 282.21 1102.86 253.25 1141.03 253.25L1142.35 253.25C1174.38 253.69 1198.51 281.33 1198.51 327.84C1198.51 373.04 1174.82 400.68 1142.35 400.68ZM1116.02 549.43C1224.84 549.43 1256.43 513.45 1256.43 430.96L1256.43 217.27L1195.88 217.27L1195.88 239.65C1183.59 222.1 1162.97 208.49 1127.87 208.49L1127.43 208.49C1077.41 208.49 1024.75 248.42 1024.75 327.41C1024.75 402 1072.58 445 1130.94 445C1167.8 445 1184.47 430.52 1195.88 414.29L1195.88 432.71C1195.88 502.04 1171.31 502.48 1106.37 502.48L1082.23 502.48L1086.62 549.43Z" />
</svg>